# xmcd
#
# Track frame offsets: 
#        150
#        19264
#        32695
#        50428
#        64669
#        80147
#        99287
#        108860
#        123818
#        135987
#        147998
#        161723
#        174272
#        195386
#        204199
#        214974
#        228015
#
# Disc length: 3227 seconds
#
# Revision: 1
# Processed by: cddbd v1.5.2PL0 Copyright (c) Steve Scherf et al.
# Submitted via: ExactAudioCopy v1.3
#
DISCID=d90c9911
DTITLE=Henry Mancini and Ultimate Mancini Orchestra - Ultimate Mancini
DYEAR=2004
DGENRE=Classical
TTITLE0=The Pink Panther Theme
TTITLE1=Charade
TTITLE2=Two For The Road
TTITLE3=Moon River
TTITLE4=Moment To Moment
TTITLE5=Days Of Wine And Roses
TTITLE6=Peter Gunn Theme (from ''Peter Gunn Suite'')
TTITLE7=Dreamsville (from ''Peter Gunn Suite'')
TTITLE8=Dear Heart
TTITLE9=The Thorn Birds Theme
TTITLE10=Anywhere The Heart Goes (Meggie's Theme)
TTITLE11=Mr. Lucky
TTITLE12=Whistling Away The Dark
TTITLE13=Life In A Looking Glass (Movie Medley)
TTITLE14=Crazy World (Movie Medley)
TTITLE15=It's Easy To Say (Movie Medley)
TTITLE16=Music On The Way
EXTD=YEAR: 2004
EXTT0=
EXTT1=
EXTT2=
EXTT3=
EXTT4=
EXTT5=
EXTT6=
EXTT7=
EXTT8=
EXTT9=
EXTT10=
EXTT11=
EXTT12=
EXTT13=
EXTT14=
EXTT15=
EXTT16=
PLAYORDER=
